<svg xmlns="http://www.w3.org/2000/svg" viewBox="0 0 120 120">
  <defs>
    <clipPath id="halfL"><rect x="0" y="0" width="60" height="120"/></clipPath>
    <clipPath id="halfR"><rect x="60" y="0" width="60" height="120"/></clipPath>
  </defs>
  <polygon fill="#e8503a" clip-path="url(#halfL)" points="60.0,4.0 70.0,16.1 84.3,9.5 88.1,24.8 103.8,25.1 100.5,40.5 114.6,47.5 105.0,60.0 114.6,72.5 100.5,79.5 103.8,94.9 88.1,95.2 84.3,110.5 70.0,103.9 60.0,116.0 50.0,103.9 35.7,110.5 31.9,95.2 16.2,94.9 19.5,79.5 5.4,72.5 15.0,60.0 5.4,47.5 19.5,40.5 16.2,25.1 31.9,24.8 35.7,9.5 50.0,16.1"/>
  <polygon fill="#f4b400" clip-path="url(#halfR)" points="60.0,4.0 70.0,16.1 84.3,9.5 88.1,24.8 103.8,25.1 100.5,40.5 114.6,47.5 105.0,60.0 114.6,72.5 100.5,79.5 103.8,94.9 88.1,95.2 84.3,110.5 70.0,103.9 60.0,116.0 50.0,103.9 35.7,110.5 31.9,95.2 16.2,94.9 19.5,79.5 5.4,72.5 15.0,60.0 5.4,47.5 19.5,40.5 16.2,25.1 31.9,24.8 35.7,9.5 50.0,16.1"/>
  <rect x="30" y="36" width="60" height="42" rx="19" fill="#ffffff"/>
  <path d="M44 76 L38 92 L58 76 Z" fill="#ffffff"/>
  <path d="M60 47 L64 55 L73 57 L64 59 L60 68 L56 59 L47 57 L56 55 Z" fill="#2b3642"/>
</svg>
