<svg xmlns="http://www.w3.org/2000/svg" viewBox="0 0 120 120">
  <path fill="#e8503a" d="M60 4l9.5 12.8L84.9 9l1.9 15.8 15.7-2.6-6.1 14.7 14.9 5.6-11.9 10.5 11.9 10.5-14.9 5.6 6.1 14.7-15.7-2.6L84.9 111 69.5 103.2 60 116l-9.5-12.8L35.1 111l-1.9-15.8-15.7 2.6 6.1-14.7L8.7 77.5 20.6 67 8.7 56.5l14.9-5.6-6.1-14.7 15.7 2.6L35.1 9l15.4 7.8z"/>
  <path fill="none" stroke="#f4b400" stroke-width="3.4" stroke-linecap="round" stroke-linejoin="round" d="M26 74l16-20 9 10 9-17 10 15 8-9 16 21"/>
  <circle cx="60" cy="47" r="2.6" fill="#f4b400"/>
</svg>
